<svg width="128" height="33" viewBox="0 0 128 33" fill="none" xmlns="http://www.w3.org/2000/svg">
    <path d="M0 16C0 7.16344 7.16344 0 16 0C20.7613 0 25.0392 2.08272 27.9667 5.37909L24.422 8.52708C22.3561 6.20083 19.3501 4.74074 16 4.74074C9.78168 4.74074 4.74074 9.78168 4.74074 16C4.74074 22.2183 9.78168 27.2593 16 27.2593C19.3501 27.2593 22.3561 25.7992 24.422 23.4729L27.9667 26.6209C25.0392 29.9173 20.7613 32 16 32C7.16344 32 0 24.8366 0 16Z" fill="url(#paint0_linear_11202_4263)"/>
    <path d="M8.86953 16.0228C13.2827 16.3309 15.6653 18.6718 16.0153 23.05C16.0176 23.0792 16.058 23.0792 16.0602 23.05C16.4125 18.6718 18.7929 16.3286 23.206 16.0228C23.2352 16.0228 23.2352 15.9801 23.206 15.9778C18.7929 15.6698 16.4102 13.3289 16.0602 8.95064C16.058 8.9214 16.0176 8.9214 16.0153 8.95064C15.6631 13.3289 13.2827 15.672 8.86953 15.9778C8.84036 15.9778 8.84036 16.0205 8.86953 16.0228Z" fill="white"/>
    <path d="M45.0183 28.0304C44.2569 28.0304 43.6136 27.8334 43.0885 27.4396C42.5633 27.0457 42.1607 26.4856 41.8807 25.7592C41.6094 25.0328 41.4737 24.1707 41.4737 23.1729C41.4737 22.1664 41.6094 21.3 41.8807 20.5735C42.1607 19.8471 42.5633 19.287 43.0885 18.8931C43.6136 18.4905 44.2569 18.2892 45.0183 18.2892C45.8935 18.2892 46.6243 18.5781 47.2107 19.1557C47.7971 19.7333 48.1735 20.5517 48.3398 21.6107L46.6725 21.6894C46.5587 21.0593 46.353 20.5823 46.0554 20.2585C45.7666 19.9259 45.4209 19.7596 45.0183 19.7596C44.607 19.7596 44.2613 19.8953 43.9812 20.1666C43.7099 20.4291 43.5042 20.8142 43.3642 21.3219C43.2241 21.8295 43.1541 22.4465 43.1541 23.1729C43.1541 23.8906 43.2241 24.5033 43.3642 25.0109C43.5042 25.5185 43.7099 25.9036 43.9812 26.1662C44.2613 26.4287 44.607 26.56 45.0183 26.56C45.4384 26.56 45.8016 26.385 46.108 26.0349C46.4143 25.676 46.62 25.1553 46.725 24.4726L48.3923 24.5383C48.2347 25.641 47.8584 26.4987 47.2632 27.1114C46.6768 27.724 45.9285 28.0304 45.0183 28.0304ZM52.8376 27.9779C52.1812 27.9779 51.6035 27.8291 51.1047 27.5315C50.6146 27.2339 50.2338 26.8094 49.9625 26.2581C49.6912 25.7067 49.5555 25.059 49.5555 24.3151C49.5555 23.5711 49.6912 22.9235 49.9625 22.3721C50.2338 21.8207 50.6146 21.3962 51.1047 21.0987C51.6035 20.8011 52.1812 20.6523 52.8376 20.6523C53.494 20.6523 54.0673 20.8011 54.5574 21.0987C55.0563 21.3962 55.4414 21.8207 55.7127 22.3721C55.984 22.9147 56.1197 23.5624 56.1197 24.3151C56.1197 25.059 55.984 25.7067 55.7127 26.2581C55.4414 26.8094 55.0563 27.2339 54.5574 27.5315C54.0673 27.8291 53.494 27.9779 52.8376 27.9779ZM52.8376 26.5863C53.3715 26.5863 53.7828 26.3893 54.0717 25.9955C54.3605 25.5929 54.5049 25.0328 54.5049 24.3151C54.5049 23.5974 54.3605 23.0416 54.0717 22.6478C53.7828 22.2452 53.3715 22.0439 52.8376 22.0439C52.3037 22.0439 51.8924 22.2452 51.6035 22.6478C51.3147 23.0416 51.1703 23.5974 51.1703 24.3151C51.1703 25.0328 51.3147 25.5929 51.6035 25.9955C51.8924 26.3893 52.3037 26.5863 52.8376 26.5863ZM60.053 27.9779C59.4666 27.9779 58.959 27.8334 58.5301 27.5446C58.1013 27.247 57.7687 26.8269 57.5324 26.2843C57.3048 25.7329 57.191 25.0765 57.191 24.3151C57.191 23.5536 57.3048 22.9016 57.5324 22.359C57.7687 21.8076 58.1013 21.3875 58.5301 21.0987C58.959 20.8011 59.4666 20.6523 60.053 20.6523C60.5431 20.6523 60.9676 20.7661 61.3264 20.9936C61.694 21.2124 61.961 21.4794 62.1272 21.7945V18.4993H63.6764V27.8203H62.206L62.1666 26.7307C61.9828 27.0983 61.7071 27.4002 61.3395 27.6365C60.9807 27.8641 60.5519 27.9779 60.053 27.9779ZM60.4206 26.5863C60.7619 26.5863 61.0595 26.4944 61.3133 26.3106C61.5759 26.1268 61.7772 25.8686 61.9172 25.536C62.0572 25.1947 62.1272 24.7877 62.1272 24.3151C62.1272 23.8337 62.0572 23.4267 61.9172 23.0942C61.7772 22.7528 61.5759 22.4946 61.3133 22.3196C61.0595 22.1358 60.7532 22.0439 60.3943 22.0439C59.8954 22.0439 59.506 22.2452 59.2259 22.6478C58.9458 23.0416 58.8058 23.5974 58.8058 24.3151C58.8058 25.0328 58.9458 25.5929 59.2259 25.9955C59.506 26.3893 59.9042 26.5863 60.4206 26.5863ZM68.6468 27.9779C67.9904 27.9779 67.4128 27.8291 66.9139 27.5315C66.4238 27.2339 66.0431 26.8094 65.7718 26.2581C65.5004 25.7067 65.3648 25.059 65.3648 24.3151C65.3648 23.5799 65.5004 22.941 65.7718 22.3984C66.0431 21.847 66.4194 21.4181 66.9008 21.1118C67.3909 20.8055 67.9642 20.6523 68.6206 20.6523C69.2507 20.6523 69.8065 20.8011 70.2879 21.0987C70.778 21.3962 71.1587 21.8207 71.43 22.3721C71.7101 22.9235 71.8501 23.5799 71.8501 24.3413V24.7483H66.9664C67.0102 25.3435 67.1808 25.7986 67.4784 26.1136C67.7847 26.4287 68.183 26.5863 68.6731 26.5863C69.0494 26.5863 69.3601 26.4987 69.6052 26.3237C69.859 26.1399 70.034 25.9036 70.1303 25.6148L71.7188 25.7329C71.5 26.4331 71.1281 26.9845 70.6029 27.3871C70.0778 27.7809 69.4258 27.9779 68.6468 27.9779ZM66.9795 23.6193H70.1697C70.1259 23.0854 69.964 22.6916 69.684 22.4377C69.4039 22.1752 69.0451 22.0439 68.6074 22.0439C68.1698 22.0439 67.8066 22.1796 67.5178 22.4509C67.2377 22.7134 67.0583 23.1029 66.9795 23.6193ZM75.9147 26.6125L74.4444 20.4948L74.6413 20.4685V27.8203H73.1184V18.4993H75.0877L76.7024 24.9846H76.2036L77.8183 18.4993H79.7876V27.8203H78.2647V20.4685L78.4616 20.4948L76.9912 26.6125H75.9147ZM84.0097 27.8203V20.8099H85.5588V27.8203H84.0097ZM81.3315 27.8203V26.56H87.8431V27.8203H81.3315ZM81.4628 22.0702V20.8099H85.3357V22.0702H81.4628ZM83.9441 19.8777V18.4074H85.5194V19.8777H83.9441ZM92.2622 27.9779C91.6058 27.9779 91.0282 27.8291 90.5293 27.5315C90.0392 27.2339 89.6585 26.8094 89.3871 26.2581C89.1158 25.7067 88.9802 25.059 88.9802 24.3151C88.9802 23.5799 89.1158 22.941 89.3871 22.3984C89.6585 21.847 90.0348 21.4181 90.5162 21.1118C91.0063 20.8055 91.5795 20.6523 92.236 20.6523C92.8661 20.6523 93.4219 20.8011 93.9032 21.0987C94.3934 21.3962 94.7741 21.8207 95.0454 22.3721C95.3255 22.9235 95.4655 23.5799 95.4655 24.3413V24.7483H90.5818C90.6256 25.3435 90.7962 25.7986 91.0938 26.1136C91.4001 26.4287 91.7984 26.5863 92.2885 26.5863C92.6648 26.5863 92.9755 26.4987 93.2206 26.3237C93.4744 26.1399 93.6494 25.9036 93.7457 25.6148L95.3342 25.7329C95.1154 26.4331 94.7434 26.9845 94.2183 27.3871C93.6932 27.7809 93.0412 27.9779 92.2622 27.9779ZM90.5949 23.6193H93.7851C93.7413 23.0854 93.5794 22.6916 93.2993 22.4377C93.0193 22.1752 92.6604 22.0439 92.2228 22.0439C91.7852 22.0439 91.422 22.1796 91.1332 22.4509C90.8531 22.7134 90.6737 23.1029 90.5949 23.6193Z" fill="white"/>
    <path d="M42.1564 12.2305V2.90944H47.9328V4.40606H43.7843V6.83478H47.7752V8.27888H43.7843V10.7339H48.0378V12.2305H42.1564ZM49.9757 12.2305V2.90944H52.9295C53.5684 2.90944 54.1329 3.03197 54.623 3.27703C55.1132 3.52209 55.4939 3.86343 55.7652 4.30103C56.0365 4.73864 56.1722 5.25939 56.1722 5.86329C56.1722 6.45843 56.0365 6.97481 55.7652 7.41242C55.4939 7.85002 55.1132 8.19136 54.623 8.43642C54.1329 8.67272 53.5684 8.79088 52.9295 8.79088H51.6035V12.2305H49.9757ZM51.6035 7.30739H52.7588C53.3452 7.30739 53.7785 7.18486 54.0585 6.9398C54.3473 6.68599 54.4918 6.32715 54.4918 5.86329C54.4918 5.38192 54.3473 5.01871 54.0585 4.77365C53.7785 4.52859 53.3452 4.40606 52.7588 4.40606H51.6035V7.30739ZM57.0466 12.2305L59.6985 2.90944H61.7203L64.3722 12.2305H62.7049L60.7094 4.74739L58.7139 12.2305H57.0466ZM58.6745 10.0249L59.1209 8.5677H62.2979L62.7443 10.0249H58.6745ZM68.0429 11.0227L66.5726 4.90493L66.7695 4.87867V12.2305H65.2466V2.90944H67.2159L68.8306 9.39478H68.3318L69.9465 2.90944H71.9158V12.2305H70.3929V4.87867L70.5898 4.90493L69.1194 11.0227H68.0429ZM80.662 12.2305L83.3139 2.90944H85.3357L87.9875 12.2305H86.3203L84.3248 4.74739L82.3293 12.2305H80.662ZM82.2899 10.0249L82.7363 8.5677H85.9133L86.3597 10.0249H82.2899ZM89.2559 12.2305V10.7339H91.3826V4.40606H89.2559V2.90944H95.1373V4.40606H93.0105V10.7339H95.1373V12.2305H89.2559ZM97.364 13.6746L101.302 2.38431H102.773L98.8343 13.6746H97.364ZM104.842 12.2305V2.90944H107.796C108.794 2.90944 109.577 3.15888 110.146 3.65775C110.715 4.15662 110.999 4.83929 110.999 5.70575C110.999 6.15211 110.898 6.54596 110.697 6.88729C110.505 7.22862 110.246 7.49994 109.923 7.70124C109.599 7.89378 109.244 8.00319 108.859 8.02944L108.807 7.85878C109.481 7.88503 109.984 8.03382 110.316 8.30514C110.649 8.5677 110.842 9.00093 110.894 9.60483L111.117 12.2305H109.489L109.292 9.98555C109.266 9.65296 109.2 9.39478 109.095 9.21098C108.999 9.02719 108.846 8.90028 108.636 8.83026C108.435 8.76025 108.155 8.72524 107.796 8.72524H106.47V12.2305H104.842ZM106.47 7.22862H107.756C108.264 7.22862 108.649 7.10609 108.912 6.86103C109.183 6.61597 109.319 6.26589 109.319 5.81078C109.319 5.35567 109.183 5.00996 108.912 4.77365C108.649 4.52859 108.264 4.40606 107.756 4.40606H106.47V7.22862ZM115.812 12.4405C114.805 12.4405 114.018 12.1429 113.449 11.5478C112.889 10.9439 112.609 10.0949 112.609 9.00093V2.90944H114.237V9.10596C114.237 9.7011 114.368 10.1606 114.63 10.4844C114.902 10.8082 115.296 10.9702 115.812 10.9702C116.328 10.9702 116.718 10.8082 116.98 10.4844C117.252 10.1606 117.387 9.7011 117.387 9.10596V2.90944H119.015V9.00093C119.015 10.0949 118.731 10.9439 118.162 11.5478C117.602 12.1429 116.818 12.4405 115.812 12.4405ZM120.612 12.2305V2.90944H122.358L125.18 9.60483V2.90944H126.756V12.2305H125.01L122.187 5.53508V12.2305H120.612Z" fill="#C447EB"/>
    <defs>
        <linearGradient id="paint0_linear_11202_4263" x1="23.1506" y1="-4.4642" x2="-14.8566" y2="42.131" gradientUnits="userSpaceOnUse">
            <stop offset="0.0192308" stop-color="#ECB1FF"/>
            <stop offset="0.375" stop-color="#C447EB"/>
            <stop offset="1" stop-color="#3E1866"/>
        </linearGradient>
    </defs>
</svg>
